{"title":"Die.Hard.1988.720p.BRRip.XviD.AC3-PsychoLogic","uid":6604202,"size":3315658651,"categoryP":"video","categoryS":"hd___movies","magnet":"?xt=urn:btih:de2661c2c943ed4570cc2e76c6ed5cf8025be44f&amp;dn=Die.Hard.1988.720p.BRRip.XviD.AC3-PsychoLogic&amp;tr=udp%3A%2F%2Ftracker.openbittorrent.com%3A80&amp;tr=udp%3A%2F%2Fopen.demonii.com%3A1337&amp;tr=udp%3A%2F%2Ftracker.coppersurfer.tk%3A6969&amp;tr=udp%3A%2F%2Fexodus.desync.com%3A6969","seeders":1,"leechers":0,"uploader":"PsychoLogic","files":21,"time":1313335777,"description":"Release Information:\n\nDie.Hard.1988.720p.BRRip.XviD.AC3-PsychoLogic\n\nSource                           : Die.Hard.1988.720p.BluRay.x264-SiNNERS\nSubtitles                        : Arabic, Bulgarian, Danish, English, Finnish, French, Hebrew, Indonesian, Norwegian, Portuguese, Romanian, Serbian, Slovenian, Spanish, Swedish, Turkish, Vietnamese\nLanguage                         : English\nEncoded By                       : PsychoLogic\nSample Included                  : Yes\n\nMovie Information                : http://www.imdb.com/title/tt0095016/\nGenre                            : Action | Thriller\nDirector                         : John McTiernan\nCast                             : Bruce Willis, Alan Rickman and Bonnie Bedelia\nPlot                             : New York cop John McClane gives terrorists a dose of their own medicine as they hold hostages in an LA office building. \n\nGeneral\nFormat                           : AVI\nFormat/Info                      : Audio Video Interleave\nFormat profile                   : OpenDML\nFile size                        : 3.06 GiB\nDuration                         : 2h 12mn\nOverall bit rate                 : 3 313 Kbps\nWriting application              : VirtualDubMod 1.5.10.2 (build 2542/release)\nWriting library                  : VirtualDubMod build 2542/release\n\nVideo\nID                               : 0\nFormat                           : MPEG-4 Visual\nFormat profile                   : Advanced Simple@L5\nFormat settings, BVOP            : 2\nFormat settings, QPel            : No\nFormat settings, GMC             : No warppoints\nFormat settings, Matrix          : Default (H.263)\nCodec ID                         : XVID\nCodec ID/Hint                    : XviD\nDuration                         : 2h 12mn\nBit rate                         : 2 854 Kbps\nWidth                            : 1 280 pixels\nHeight                           : 544 pixels\nDisplay aspect ratio             : 2.35:1\nFrame rate                       : 23.976 fps\nColor space                      : YUV\nChroma subsampling               : 4:2:0\nBit depth                        : 8 bits\nScan type                        : Progressive\nCompression mode                 : Lossy\nBits/(Pixel*Frame)               : 0.171\nStream size                      : 2.63 GiB (86%)\nWriting library                  : XviD 1.2.1 (UTC 2008-12-04)\n\nAudio\nID                               : 1\nFormat                           : AC-3\nFormat/Info                      : Audio Coding 3\nMode extension                   : CM (complete main)\nCodec ID                         : 2000\nDuration                         : 2h 12mn\nBit rate mode                    : Constant\nBit rate                         : 448 Kbps\nChannel(s)                       : 6 channels\nChannel positions                : Front: L C R, Side: L R, LFE\nSampling rate                    : 48.0 KHz\nBit depth                        : 16 bits\nCompression mode                 : Lossy\nStream size                      : 423 MiB (14%)\nAlignment                        : Split accross interleaves\nInterleave, duration             : 42 ms (1.00 video frame)\nInterleave, preload duration     : 500 ms\n\n","torrent":{"xt":"urn:btih:de2661c2c943ed4570cc2e76c6ed5cf8025be44f","amp;dn":"Die.Hard.1988.720p.BRRip.XviD.AC3-PsychoLogic","amp;tr":["udp%3A%2F%2Ftracker.openbittorrent.com%3A80","udp%3A%2F%2Fopen.demonii.com%3A1337","udp%3A%2F%2Ftracker.coppersurfer.tk%3A6969","udp%3A%2F%2Fexodus.desync.com%3A6969"],"infoHash":"de2661c2c943ed4570cc2e76c6ed5cf8025be44f","infoHashBuffer":{"type":"Buffer","data":[222,38,97,194,201,67,237,69,112,204,46,118,198,237,92,248,2,91,228,79]},"announce":[],"urlList":[]}}